<svg xmlns="http://www.w3.org/2000/svg" xmlns:xlink="http://www.w3.org/1999/xlink" width="80" zoomAndPan="magnify" viewBox="0 0 375 374.999991" height="80" preserveAspectRatio="xMidYMid meet" version="1.0"><defs><clipPath id="646842a03f"><path d="M 13 29.585938 L 362 29.585938 L 362 345.335938 L 13 345.335938 Z M 13 29.585938 " clip-rule="nonzero"/></clipPath></defs><g clip-path="url(#646842a03f)"><path fill="#000000" d="M 47.703125 29.585938 L 175.4375 29.585938 L 191.792969 93.621094 L 199.523438 63.757812 L 233.730469 29.585938 L 361.46875 29.585938 L 361.46875 311.296875 L 327.261719 345.472656 L 235.441406 345.472656 L 235.441406 318.132812 L 210.195312 345.472656 L 130.625 345.472656 L 125.355469 324.96875 L 105.308594 345.472656 L 13.492188 345.472656 L 13.492188 63.757812 Z M 47.703125 29.585938 " fill-opacity="1" fill-rule="nonzero"/></g><path fill="#84b4d1" d="M 347.785156 43.253906 L 244.335938 43.253906 L 204.449219 197.984375 L 164.765625 43.253906 L 61.316406 43.253906 L 61.316406 297.628906 L 125.765625 297.628906 L 125.765625 103.601562 L 175.441406 297.5625 L 233.730469 297.5625 L 283.269531 103.601562 L 283.269531 297.5625 L 347.785156 297.5625 Z M 347.785156 43.253906 " fill-opacity="1" fill-rule="nonzero"/></svg>